<svg width="24" height="24" viewBox="0 0 24 24" fill="none" xmlns="http://www.w3.org/2000/svg">
<path d="M11 9C11 11.21 9.21 13 7 13C4.79 13 3 11.21 3 9C3 6.79 4.79 5 7 5C9.21 5 11 6.79 11 9ZM11 15.72V21H0V19C0 16.79 3.13 15 7 15C8.5 15 9.87 15.27 11 15.72ZM24 21H13V4H24V21ZM16 12.5C16 11.12 17.12 10 18.5 10C19.88 10 21 11.12 21 12.5C21 13.88 19.88 15 18.5 15C17.12 15 16 13.88 16 12.5ZM22 8C20.9 8 20 7.11 20 6H17C17 7.11 16.11 8 15 8V17C16.11 17 17 17.9 17 19H20C20 17.9 20.9 17 22 17V8Z" fill="#0C253C"/>
</svg>
