<svg width="24" height="24" viewBox="0 0 24 24" fill="none" xmlns="http://www.w3.org/2000/svg">
<path d="M18.43 3.16L19.04 7.02L22.55 8.81L20.78 12.31L22.56 15.81L19.02 17.6L18.41 21.46L14.52 20.85L11.75 23.61L8.97 20.81L5.11 21.45L4.49 17.56L1 15.78L2.78 12.28L1.01 8.81L4.52 7L5.13 3.17L9 3.81L11.78 1L14.55 3.77L18.43 3.16ZM9.28 7.31C8.45157 7.31 7.78 7.98157 7.78 8.81C7.78 9.63843 8.45157 10.31 9.28 10.31C10.1084 10.31 10.78 9.63843 10.78 8.81C10.78 7.98157 10.1084 7.31 9.28 7.31ZM14.28 14.31C13.4516 14.31 12.78 14.9816 12.78 15.81C12.78 16.6384 13.4516 17.31 14.28 17.31C15.1084 17.31 15.78 16.6384 15.78 15.81C15.78 14.9816 15.1084 14.31 14.28 14.31ZM8.19 17.31L16.78 8.72L15.37 7.31L6.78 15.9L8.19 17.31Z" fill="#0C253C"/>
</svg>
