<svg width="24" height="24" viewBox="0 0 24 24" fill="none" xmlns="http://www.w3.org/2000/svg">
<path d="M12 18.25C16.4883 18.25 20.125 14.6133 20.125 10.125C20.125 5.6367 16.4883 2 12 2C7.5117 2 3.875 5.6367 3.875 10.125C3.875 14.6133 7.5117 18.25 12 18.25ZM11.1328 5.8047V5.14842C11.1328 4.78908 11.4219 4.5 11.7813 4.5H12.2148C12.5742 4.5 12.8633 4.78908 12.8633 5.14842V5.81248C13.4687 5.84377 14.0547 6.05079 14.543 6.41406C14.7617 6.5742 14.7851 6.89452 14.5898 7.08202L13.9531 7.68748C13.8047 7.83202 13.582 7.83595 13.4062 7.72655C13.1953 7.59376 12.9609 7.52734 12.7109 7.52734H11.1914C10.8398 7.52734 10.5547 7.84766 10.5547 8.24218C10.5547 8.5625 10.75 8.84765 11.0273 8.9297L13.461 9.66014C14.4648 9.96093 15.168 10.9258 15.168 12.0078C15.168 13.3359 14.1367 14.4102 12.8594 14.4453V15.1016C12.8594 15.4609 12.5703 15.75 12.211 15.75H11.7773C11.418 15.75 11.1289 15.4609 11.1289 15.1016V14.4375C10.5234 14.4062 9.93751 14.1992 9.44923 13.8359C9.23045 13.6758 9.20703 13.3555 9.40234 13.168L10.0391 12.5625C10.1875 12.418 10.4101 12.414 10.5859 12.5235C10.7969 12.6562 11.0313 12.7227 11.2812 12.7227H12.8008C13.1523 12.7227 13.4375 12.4023 13.4375 12.0078C13.4375 11.6875 13.2422 11.4024 12.9649 11.3203L10.5313 10.5899C9.52735 10.2891 8.82423 9.32422 8.82423 8.24218C8.82812 6.91405 9.85545 5.83984 11.1328 5.8047ZM20.75 15.75H19.4805C18.7149 16.7656 17.7383 17.6133 16.6289 18.25H19.1211C19.3281 18.25 19.4961 18.3906 19.4961 18.5625V19.1875C19.4961 19.3594 19.3281 19.5 19.1211 19.5H4.87498C4.66796 19.5 4.5 19.3594 4.5 19.1875V18.5625C4.5 18.3906 4.66796 18.25 4.87498 18.25H7.3672C6.25781 17.6133 5.28514 16.7656 4.51564 15.75H3.25C2.55859 15.75 2 16.3086 2 17V20.75C2 21.4414 2.55859 22 3.25 22H20.75C21.4414 22 22 21.4414 22 20.75V17C22 16.3086 21.4414 15.75 20.75 15.75Z" fill="#0C253C"/>
</svg>
