<svg width="16" height="15" viewBox="0 0 16 15" fill="none" xmlns="http://www.w3.org/2000/svg">
<g clip-path="url(#clip0_6_493)">
<path d="M8.00027 0C8.40305 0 8.75582 0.269444 8.8586 0.661111L9.52249 3.15L11.6308 1.66944C11.9614 1.43889 12.403 1.45833 12.7142 1.71667C13.0253 1.975 13.1197 2.40833 12.9475 2.775L11.8558 5.10833L14.4225 5.33055C14.8225 5.36389 15.1503 5.66389 15.2225 6.06111C15.2947 6.45833 15.0864 6.85278 14.7225 7.02222L12.3864 8.10833L14.2114 9.92778C14.4975 10.2111 14.5558 10.6528 14.353 11.0028C14.1503 11.3528 13.7419 11.5222 13.353 11.4167L10.8614 10.7444L11.0892 13.3111C11.1253 13.7111 10.8864 14.0861 10.5086 14.225C10.1308 14.3639 9.70582 14.2278 9.47527 13.9L8.00027 11.7889L6.52527 13.9C6.29471 14.2306 5.86971 14.3639 5.49193 14.225C5.11416 14.0861 4.87527 13.7111 4.91138 13.3111L5.13916 10.7444L2.65027 11.4139C2.26138 11.5194 1.85027 11.35 1.65027 11C1.45027 10.65 1.50582 10.2111 1.79193 9.925L3.61693 8.10555L1.27805 7.01944C0.914157 6.85 0.708601 6.45556 0.778046 6.05833C0.84749 5.66111 1.17527 5.36111 1.57805 5.32778L4.14471 5.10556L3.05305 2.77222C2.8836 2.40833 2.97805 1.97222 3.28638 1.71389C3.59471 1.45556 4.03916 1.43611 4.36971 1.66667L6.47805 3.14722L7.14193 0.658333C7.24471 0.269444 7.59749 0 8.00027 0ZM8.00027 4.33889L7.86693 4.83889C7.79193 5.11944 7.5836 5.34444 7.31138 5.44444C7.03916 5.54444 6.7336 5.50278 6.49749 5.33611L6.07527 5.03889L6.29471 5.50556C6.41693 5.76944 6.40582 6.075 6.2586 6.32778C6.11138 6.58056 5.85582 6.74444 5.56416 6.76944L5.05027 6.81389L5.51693 7.03056C5.78082 7.15278 5.96693 7.39722 6.01693 7.68333C6.06693 7.96944 5.97527 8.26111 5.76971 8.46667L5.40305 8.83055L5.90027 8.69722C6.18082 8.62222 6.48082 8.68889 6.70305 8.875C6.92527 9.06111 7.04193 9.34444 7.01693 9.63333L6.97249 10.1472L7.26693 9.725C7.4336 9.48611 7.70582 9.34444 7.99471 9.34444C8.2836 9.34444 8.55582 9.48611 8.72249 9.725L9.01693 10.1472L8.97249 9.63333C8.94749 9.34444 9.06416 9.06111 9.28638 8.875C9.5086 8.68889 9.8086 8.62222 10.0892 8.69722L10.5864 8.83055L10.2197 8.46667C10.0142 8.26111 9.92249 7.96944 9.97249 7.68333C10.0225 7.39722 10.2086 7.15278 10.4725 7.03056L10.9392 6.81389L10.4253 6.76944C10.1364 6.74444 9.87805 6.58056 9.73082 6.32778C9.5836 6.075 9.57249 5.76944 9.69471 5.50556L9.91416 5.03889L9.49193 5.33611C9.25305 5.50278 8.95027 5.54444 8.67805 5.44444C8.40582 5.34444 8.19749 5.11944 8.12249 4.83889L7.98916 4.33889H8.00027Z" fill="#1073FE"/>
</g>
<defs>
<clipPath id="clip0_6_493">
<rect width="16" height="14.2222" fill="white"/>
</clipPath>
</defs>
</svg>
