<svg width="16" height="17" viewBox="0 0 16 17" fill="none" xmlns="http://www.w3.org/2000/svg">
<path d="M8.66634 3.16667H10.6663C11.02 3.16667 11.3591 3.30714 11.6092 3.55719C11.8592 3.80724 11.9997 4.14638 11.9997 4.5V13.8333M1.33301 13.8333H3.33301M3.33301 13.8333L7.83834 14.9593C7.9366 14.9838 8.03914 14.9856 8.1382 14.9646C8.23725 14.9436 8.33021 14.9002 8.41002 14.8379C8.48983 14.7756 8.55439 14.6959 8.5988 14.6049C8.64322 14.5139 8.66631 14.4139 8.66634 14.3127V3.54133C8.66621 3.33879 8.61993 3.13827 8.53103 2.95628C8.44212 2.77429 8.31292 2.61494 8.15323 2.49034C7.99355 2.36574 7.80757 2.27916 7.60943 2.23717C7.41128 2.19518 7.20618 2.19888 7.00968 2.248L4.34301 2.91467C4.05456 2.98677 3.79848 3.15322 3.61548 3.38755C3.43248 3.62189 3.33305 3.91067 3.33301 4.208V13.8333ZM8.66634 13.8333H14.6663M6.66634 8.5V8.50667" stroke="black" stroke-width="1.33333" stroke-linecap="round" stroke-linejoin="round"/>
</svg>
