<svg width="32" height="32" viewBox="0 0 32 32" fill="none" xmlns="http://www.w3.org/2000/svg">
<path d="M11.9997 7.52933H11.5291V7.99992C11.5291 9.21278 10.5459 10.196 9.33301 10.196H8.86242V10.6666V15.9999V16.4705H9.33301C10.5459 16.4705 11.5291 17.4537 11.5291 18.6666V19.1372H11.9997H25.333H25.8036V18.6666C25.8036 17.4537 26.7868 16.4705 27.9997 16.4705H28.4703V15.9999V10.6666V10.196H27.9997C26.7868 10.196 25.8036 9.21278 25.8036 7.99992V7.52933H25.333H11.9997ZM3.99967 24.4705H24.8624V26.196H1.8036V11.1372H3.52909V23.9999V24.4705H3.99967ZM7.13693 5.80384H30.1957V20.8627H7.13693V5.80384ZM18.6663 9.80384C20.6156 9.80384 22.1958 11.384 22.1958 13.3333C22.1958 15.2825 20.6156 16.8627 18.6663 16.8627C16.7171 16.8627 15.1369 15.2825 15.1369 13.3333C15.1369 11.384 16.7171 9.80384 18.6663 9.80384Z" fill="#F7F7F7" stroke="black" stroke-width="0.941176"/>
</svg>
