<svg width="32" height="32" viewBox="0 0 32 32" fill="none" xmlns="http://www.w3.org/2000/svg">
<path d="M18.8 26.7078C21.0897 23.3991 21.6734 20.3839 21.7824 18.6871C23.0774 19.1217 24.1392 19.6816 24.8964 20.3198C25.7627 21.05 26.1958 21.8494 26.1958 22.6667V27.5294H18.2314L18.8 26.7078ZM17.9489 26.5178L18.1185 27.5294H13.8808L14.0504 26.5178L15.1304 20.0778L15.1558 19.9267L15.0872 19.7895L14.1388 17.8926C14.7446 17.8383 15.3663 17.8039 15.9997 17.8039C16.6331 17.8039 17.2547 17.8383 17.8606 17.8926L16.9121 19.7895L16.8435 19.9267L16.8689 20.0778L17.9489 26.5178ZM13.1994 26.7078L13.768 27.5294H5.8036V22.6667C5.8036 21.8504 6.23905 21.0509 7.10764 20.3201C7.86607 19.682 8.92742 19.1223 10.217 18.6878C10.3262 20.3848 10.91 23.3996 13.1994 26.7078ZM15.9997 4.47059C18.6864 4.47059 20.8624 6.64657 20.8624 9.33333C20.8624 12.0201 18.6864 14.1961 15.9997 14.1961C13.3129 14.1961 11.1369 12.0201 11.1369 9.33333C11.1369 6.64657 13.3129 4.47059 15.9997 4.47059Z" fill="#F7F7F7" stroke="black" stroke-width="0.941176"/>
</svg>
