<svg width="32" height="32" viewBox="0 0 32 32" fill="none" xmlns="http://www.w3.org/2000/svg">
<mask id="path-1-inside-1_1_857" fill="white">
<path d="M17.427 15.2134C19.0875 12.8932 19.0875 9.77353 17.427 7.45336C18.185 6.93597 19.0826 6.66159 20.0003 6.6667C22.5777 6.6667 24.667 8.75603 24.667 11.3334C24.667 13.9107 22.5777 16 20.0003 16C19.0826 16.0051 18.185 15.7308 17.427 15.2134ZM7.33366 11.3334C7.33366 8.75604 9.423 6.6667 12.0003 6.6667C14.5777 6.6667 16.667 8.75604 16.667 11.3334C16.667 13.9107 14.5777 16 12.0003 16C9.423 16 7.33366 13.9107 7.33366 11.3334ZM10.0003 11.3334C10.0003 12.4379 10.8958 13.3334 12.0003 13.3334C13.1049 13.3334 14.0003 12.4379 14.0003 11.3334C14.0003 10.2288 13.1049 9.33336 12.0003 9.33336C10.8958 9.33336 10.0003 10.2288 10.0003 11.3334ZM21.3337 24V26.6667H2.66699V24C2.66699 24 2.66699 18.6667 12.0003 18.6667C21.3337 18.6667 21.3337 24 21.3337 24ZM18.667 24C18.4803 22.96 16.8937 21.3334 12.0003 21.3334C7.10699 21.3334 5.42699 23.08 5.33366 24M21.267 18.6667C22.9212 19.9534 23.9218 21.9058 24.0003 24V26.6667H29.3337V24C29.3337 24 29.3337 19.16 21.2537 18.6667H21.267Z"/>
</mask>
<path d="M17.427 15.2134C19.0875 12.8932 19.0875 9.77353 17.427 7.45336C18.185 6.93597 19.0826 6.66159 20.0003 6.6667C22.5777 6.6667 24.667 8.75603 24.667 11.3334C24.667 13.9107 22.5777 16 20.0003 16C19.0826 16.0051 18.185 15.7308 17.427 15.2134ZM7.33366 11.3334C7.33366 8.75604 9.423 6.6667 12.0003 6.6667C14.5777 6.6667 16.667 8.75604 16.667 11.3334C16.667 13.9107 14.5777 16 12.0003 16C9.423 16 7.33366 13.9107 7.33366 11.3334ZM10.0003 11.3334C10.0003 12.4379 10.8958 13.3334 12.0003 13.3334C13.1049 13.3334 14.0003 12.4379 14.0003 11.3334C14.0003 10.2288 13.1049 9.33336 12.0003 9.33336C10.8958 9.33336 10.0003 10.2288 10.0003 11.3334ZM21.3337 24V26.6667H2.66699V24C2.66699 24 2.66699 18.6667 12.0003 18.6667C21.3337 18.6667 21.3337 24 21.3337 24ZM18.667 24C18.4803 22.96 16.8937 21.3334 12.0003 21.3334C7.10699 21.3334 5.42699 23.08 5.33366 24M21.267 18.6667C22.9212 19.9534 23.9218 21.9058 24.0003 24V26.6667H29.3337V24C29.3337 24 29.3337 19.16 21.2537 18.6667H21.267Z" fill="#F7F7F7"/>
<path d="M17.427 15.2134L16.6616 14.6656L16.1015 15.4482L16.8964 15.9907L17.427 15.2134ZM17.427 7.45336L16.8964 6.67601L16.1015 7.21854L16.6616 8.00113L17.427 7.45336ZM20.0003 6.6667L19.9951 7.60787H20.0003V6.6667ZM20.0003 16V15.0588L19.9951 15.0589L20.0003 16ZM7.33366 11.3334L6.39248 11.3334L7.33366 11.3334ZM21.3337 26.6667V27.6079H22.2748V26.6667H21.3337ZM2.66699 26.6667H1.72582V27.6079H2.66699V26.6667ZM21.267 18.6667L21.8448 17.9238L21.5899 17.7255H21.267V18.6667ZM24.0003 24H24.9415V23.9824L24.9408 23.9648L24.0003 24ZM24.0003 26.6667H23.0591V27.6079H24.0003V26.6667ZM29.3337 26.6667V27.6079H30.2748V26.6667H29.3337ZM21.2537 18.6667V17.7255L21.1963 19.6061L21.2537 18.6667ZM18.1923 15.7611C20.0873 13.1134 20.0873 9.55331 18.1923 6.9056L16.6616 8.00113C18.0878 9.99374 18.0878 12.673 16.6616 14.6656L18.1923 15.7611ZM17.9576 8.23072C18.5578 7.82106 19.2684 7.60381 19.9951 7.60786L20.0056 5.72553C18.8967 5.71936 17.8123 6.05088 16.8964 6.67601L17.9576 8.23072ZM20.0003 7.60787C22.0579 7.60787 23.7258 9.27583 23.7258 11.3334H25.6082C25.6082 8.23624 23.0975 5.72552 20.0003 5.72552V7.60787ZM23.7258 11.3334C23.7258 13.3909 22.0579 15.0589 20.0003 15.0589V16.9412C23.0975 16.9412 25.6082 14.4305 25.6082 11.3334H23.7258ZM19.9951 15.0589C19.2684 15.0629 18.5578 14.8457 17.9576 14.436L16.8964 15.9907C17.8123 16.6158 18.8967 16.9474 20.0056 16.9412L19.9951 15.0589ZM8.27484 11.3334C8.27484 9.27583 9.9428 7.60787 12.0003 7.60787V5.72552C8.9032 5.72552 6.39248 8.23624 6.39248 11.3334L8.27484 11.3334ZM12.0003 7.60787C14.0579 7.60787 15.7258 9.27583 15.7258 11.3334H17.6082C17.6082 8.23624 15.0975 5.72552 12.0003 5.72552V7.60787ZM15.7258 11.3334C15.7258 13.3909 14.0579 15.0589 12.0003 15.0589V16.9412C15.0975 16.9412 17.6082 14.4305 17.6082 11.3334H15.7258ZM12.0003 15.0589C9.94279 15.0589 8.27483 13.3909 8.27484 11.3334L6.39248 11.3334C6.39248 14.4305 8.9032 16.9412 12.0003 16.9412V15.0589ZM9.05915 11.3334C9.05915 12.9577 10.376 14.2745 12.0003 14.2745V12.3922C11.4156 12.3922 10.9415 11.9181 10.9415 11.3334H9.05915ZM12.0003 14.2745C13.6247 14.2745 14.9415 12.9577 14.9415 11.3334H13.0591C13.0591 11.9181 12.5851 12.3922 12.0003 12.3922V14.2745ZM14.9415 11.3334C14.9415 9.70899 13.6247 8.39219 12.0003 8.39219V10.2745C12.5851 10.2745 13.0591 10.7486 13.0591 11.3334H14.9415ZM12.0003 8.39219C10.376 8.39219 9.05915 9.70899 9.05915 11.3334H10.9415C10.9415 10.7486 11.4156 10.2745 12.0003 10.2745V8.39219ZM20.3925 24V26.6667H22.2748V24H20.3925ZM21.3337 25.7255H2.66699V27.6079H21.3337V25.7255ZM3.60817 26.6667V24H1.72582V26.6667H3.60817ZM2.66699 24C3.60817 24 3.60817 24.0008 3.60817 24.0016C3.60817 24.0018 3.60817 24.0026 3.60816 24.003C3.60816 24.0039 3.60816 24.0048 3.60815 24.0055C3.60814 24.0071 3.60813 24.0083 3.60811 24.0092C3.60809 24.0111 3.60807 24.0118 3.60808 24.0113C3.60811 24.0103 3.60828 24.0048 3.60885 23.9949C3.61 23.9753 3.61275 23.9387 3.61913 23.8876C3.63193 23.7852 3.6591 23.6265 3.71635 23.4302C3.83051 23.0388 4.06337 22.5001 4.54197 21.9531C5.47753 20.8839 7.51383 19.6079 12.0003 19.6079V17.7255C7.15349 17.7255 4.52312 19.1161 3.12535 20.7136C2.43728 21.5 2.08681 22.2946 1.9093 22.9032C1.82072 23.2069 1.77497 23.4648 1.75131 23.6541C1.73947 23.7489 1.7331 23.8269 1.72969 23.8853C1.72799 23.9146 1.72702 23.939 1.72648 23.9582C1.7262 23.9678 1.72604 23.9761 1.72594 23.9831C1.72589 23.9866 1.72586 23.9897 1.72584 23.9926C1.72583 23.994 1.72583 23.9953 1.72582 23.9966C1.72582 23.9972 1.72582 23.998 1.72582 23.9984C1.72582 23.9992 1.72582 24 2.66699 24ZM12.0003 19.6079C16.4868 19.6079 18.5231 20.8839 19.4587 21.9531C19.9373 22.5001 20.1701 23.0388 20.2843 23.4302C20.3415 23.6265 20.3687 23.7852 20.3815 23.8876C20.3879 23.9387 20.3907 23.9753 20.3918 23.9949C20.3924 24.0048 20.3925 24.0103 20.3926 24.0113C20.3926 24.0118 20.3926 24.0111 20.3925 24.0092C20.3925 24.0083 20.3925 24.0071 20.3925 24.0055C20.3925 24.0048 20.3925 24.0039 20.3925 24.003C20.3925 24.0026 20.3925 24.0018 20.3925 24.0016C20.3925 24.0008 20.3925 24 21.3337 24C22.2748 24 22.2748 23.9992 22.2748 23.9984C22.2748 23.998 22.2748 23.9972 22.2748 23.9966C22.2748 23.9953 22.2748 23.994 22.2748 23.9926C22.2748 23.9897 22.2748 23.9866 22.2747 23.9831C22.2746 23.9761 22.2744 23.9678 22.2742 23.9582C22.2736 23.939 22.2727 23.9146 22.271 23.8853C22.2676 23.8269 22.2612 23.7489 22.2493 23.6541C22.2257 23.4648 22.1799 23.2069 22.0914 22.9032C21.9138 22.2946 21.5634 21.5 20.8753 20.7136C19.4775 19.1161 16.8472 17.7255 12.0003 17.7255V19.6079ZM19.5934 23.8338C19.4335 22.9428 18.7371 22.0681 17.533 21.4417C16.3236 20.8126 14.54 20.3922 12.0003 20.3922V22.2745C14.354 22.2745 15.8103 22.6674 16.6643 23.1117C17.5235 23.5586 17.7139 24.0172 17.7406 24.1663L19.5934 23.8338ZM12.0003 20.3922C9.45012 20.3922 7.64404 20.8462 6.42706 21.4897C5.25414 22.1099 4.48962 22.995 4.39729 23.905L6.27003 24.095C6.26903 24.1049 6.28303 23.9954 6.4462 23.8018C6.60237 23.6166 6.87265 23.3834 7.30693 23.1537C8.17661 22.6939 9.6572 22.2745 12.0003 22.2745V20.3922ZM20.6891 19.4096C22.1239 20.5256 22.9917 22.2189 23.0598 24.0353L24.9408 23.9648C24.8519 21.5926 23.7186 19.3812 21.8448 17.9238L20.6891 19.4096ZM23.0591 24V26.6667H24.9415V24H23.0591ZM24.0003 27.6079H29.3337V25.7255H24.0003V27.6079ZM30.2748 26.6667V24H28.3925V26.6667H30.2748ZM29.3337 24C30.2748 24 30.2748 23.9992 30.2748 23.9984C30.2748 23.9981 30.2748 23.9973 30.2748 23.9967C30.2748 23.9956 30.2748 23.9943 30.2748 23.993C30.2748 23.9903 30.2748 23.9873 30.2747 23.9841C30.2746 23.9775 30.2745 23.9698 30.2743 23.9608C30.2738 23.943 30.2729 23.9204 30.2714 23.8934C30.2684 23.8395 30.2629 23.7677 30.2525 23.6805C30.2319 23.5062 30.1921 23.2687 30.1152 22.9877C29.9613 22.4251 29.6576 21.6846 29.0607 20.933C27.8452 19.4026 25.547 17.9859 21.311 17.7273L21.1963 19.6061C25.0404 19.8408 26.7821 21.0908 27.5867 22.1037C27.9997 22.6238 28.201 23.1241 28.2996 23.4844C28.349 23.6649 28.3723 23.8094 28.3832 23.9017C28.3887 23.9478 28.391 23.9805 28.392 23.9977C28.3924 24.0063 28.3926 24.0109 28.3926 24.0114C28.3926 24.0117 28.3926 24.0109 28.3925 24.009C28.3925 24.008 28.3925 24.0068 28.3925 24.0053C28.3925 24.0046 28.3925 24.0038 28.3925 24.0029C28.3925 24.0024 28.3925 24.0017 28.3925 24.0015C28.3925 24.0008 28.3925 24 29.3337 24ZM21.2537 19.6079H21.267V17.7255H21.2537V19.6079Z" fill="black" mask="url(#path-1-inside-1_1_857)"/>
</svg>
