<svg width="32" height="32" viewBox="0 0 32 32" fill="none" xmlns="http://www.w3.org/2000/svg">
<path d="M28 22.0001C28 22.5067 27.72 22.9467 27.2933 23.1734L16.76 29.0934C16.5467 29.2534 16.28 29.3334 16 29.3334C15.72 29.3334 15.4533 29.2534 15.24 29.0934L4.70667 23.1734C4.28 22.9467 4 22.5067 4 22.0001V10.0001C4 9.49342 4.28 9.05341 4.70667 8.82675L15.24 2.90675C15.4533 2.74675 15.72 2.66675 16 2.66675C16.28 2.66675 16.5467 2.74675 16.76 2.90675L27.2933 8.82675C27.72 9.05341 28 9.49342 28 10.0001V22.0001ZM16 5.53342L13.48 6.96008L21.3333 11.4801L23.9467 10.0001L16 5.53342ZM8.05333 10.0001L16 14.4668L18.6133 13.0001L10.7733 8.46675L8.05333 10.0001ZM6.66667 21.2134L14.6667 25.7201V16.7734L6.66667 12.2801V21.2134ZM25.3333 21.2134V12.2801L17.3333 16.7734V25.7201L25.3333 21.2134Z" stroke="black" stroke-width="0.941176"/>
</svg>
