<svg width="32" height="32" viewBox="0 0 32 32" fill="none" xmlns="http://www.w3.org/2000/svg">
<mask id="path-1-inside-1_1_854" fill="white">
<path d="M22.6667 13.3334H9.33333V10.6667H22.6667M22.6667 18.6667H9.33333V16.0001H22.6667M18.6667 24.0001H9.33333V21.3334H18.6667M16 5.33342C16.7364 5.33342 17.3333 5.93037 17.3333 6.66675C17.3333 7.40313 16.7364 8.00008 16 8.00008C15.2636 8.00008 14.6667 7.40313 14.6667 6.66675C14.6667 5.93037 15.2636 5.33342 16 5.33342ZM25.3333 5.33342H19.76C19.2 3.78675 17.7333 2.66675 16 2.66675C14.2667 2.66675 12.8 3.78675 12.24 5.33342H6.66667C5.19391 5.33342 4 6.52732 4 8.00008V26.6667C4 28.1395 5.19391 29.3334 6.66667 29.3334H25.3333C26.8061 29.3334 28 28.1395 28 26.6667V8.00008C28 6.52732 26.8061 5.33342 25.3333 5.33342Z"/>
</mask>
<path d="M22.6667 13.3334H9.33333V10.6667H22.6667M22.6667 18.6667H9.33333V16.0001H22.6667M18.6667 24.0001H9.33333V21.3334H18.6667M16 5.33342C16.7364 5.33342 17.3333 5.93037 17.3333 6.66675C17.3333 7.40313 16.7364 8.00008 16 8.00008C15.2636 8.00008 14.6667 7.40313 14.6667 6.66675C14.6667 5.93037 15.2636 5.33342 16 5.33342ZM25.3333 5.33342H19.76C19.2 3.78675 17.7333 2.66675 16 2.66675C14.2667 2.66675 12.8 3.78675 12.24 5.33342H6.66667C5.19391 5.33342 4 6.52732 4 8.00008V26.6667C4 28.1395 5.19391 29.3334 6.66667 29.3334H25.3333C26.8061 29.3334 28 28.1395 28 26.6667V8.00008C28 6.52732 26.8061 5.33342 25.3333 5.33342Z" fill="#F7F7F7"/>
<path d="M9.33333 13.3334H8.39216V14.2746H9.33333V13.3334ZM9.33333 10.6667V9.72557H8.39216V10.6667H9.33333ZM9.33333 18.6667H8.39216V19.6079H9.33333V18.6667ZM9.33333 16.0001V15.0589H8.39216V16.0001H9.33333ZM9.33333 24.0001H8.39216V24.9413H9.33333V24.0001ZM9.33333 21.3334V20.3922H8.39216V21.3334H9.33333ZM19.76 5.33342L18.875 5.65383L19.0998 6.27459H19.76V5.33342ZM12.24 5.33342V6.27459H12.9002L13.125 5.65383L12.24 5.33342ZM4 8.00008H4.94118H4ZM22.6667 12.3922H9.33333V14.2746H22.6667V12.3922ZM10.2745 13.3334V10.6667H8.39216V13.3334H10.2745ZM9.33333 11.6079H22.6667V9.72557H9.33333V11.6079ZM22.6667 17.7256H9.33333V19.6079H22.6667V17.7256ZM10.2745 18.6667V16.0001H8.39216V18.6667H10.2745ZM9.33333 16.9413H22.6667V15.0589H9.33333V16.9413ZM18.6667 23.0589H9.33333V24.9413H18.6667V23.0589ZM10.2745 24.0001V21.3334H8.39216V24.0001H10.2745ZM9.33333 22.2746H18.6667V20.3922H9.33333V22.2746ZM16 6.27459C16.2166 6.27459 16.3922 6.45017 16.3922 6.66675H18.2745C18.2745 5.41057 17.2562 4.39224 16 4.39224V6.27459ZM16.3922 6.66675C16.3922 6.88333 16.2166 7.05891 16 7.05891V8.94126C17.2562 8.94126 18.2745 7.92293 18.2745 6.66675H16.3922ZM16 7.05891C15.7834 7.05891 15.6078 6.88333 15.6078 6.66675H13.7255C13.7255 7.92293 14.7438 8.94126 16 8.94126V7.05891ZM15.6078 6.66675C15.6078 6.45017 15.7834 6.27459 16 6.27459V4.39224C14.7438 4.39224 13.7255 5.41057 13.7255 6.66675H15.6078ZM25.3333 4.39224H19.76V6.27459H25.3333V4.39224ZM20.645 5.013C19.9581 3.116 18.1527 1.72557 16 1.72557V3.60792C17.3139 3.60792 18.4419 4.4575 18.875 5.65383L20.645 5.013ZM16 1.72557C13.8473 1.72557 12.0419 3.116 11.355 5.013L13.125 5.65383C13.5581 4.4575 14.6861 3.60792 16 3.60792V1.72557ZM12.24 4.39224H6.66667V6.27459H12.24V4.39224ZM6.66667 4.39224C4.67411 4.39224 3.05882 6.00753 3.05882 8.00008L4.94118 8.00008C4.94118 7.04712 5.7137 6.27459 6.66667 6.27459V4.39224ZM3.05882 8.00008V26.6667H4.94118V8.00008H3.05882ZM3.05882 26.6667C3.05882 28.6593 4.67411 30.2746 6.66667 30.2746V28.3922C5.7137 28.3922 4.94118 27.6197 4.94118 26.6667H3.05882ZM6.66667 30.2746H25.3333V28.3922H6.66667V30.2746ZM25.3333 30.2746C27.3259 30.2746 28.9412 28.6593 28.9412 26.6667H27.0588C27.0588 27.6197 26.2863 28.3922 25.3333 28.3922V30.2746ZM28.9412 26.6667V8.00008H27.0588V26.6667H28.9412ZM28.9412 8.00008C28.9412 6.00752 27.3259 4.39224 25.3333 4.39224V6.27459C26.2863 6.27459 27.0588 7.04712 27.0588 8.00008H28.9412Z" fill="black" mask="url(#path-1-inside-1_1_854)"/>
</svg>
