<svg width="32" height="32" viewBox="0 0 32 32" fill="none" xmlns="http://www.w3.org/2000/svg">
<mask id="path-1-inside-1_1_852" fill="white">
<path d="M3.76465 29.3334L5.76465 27.3334L7.76465 29.3334L9.76465 27.3334L11.7646 29.3334L13.7646 27.3334L15.7646 29.3334L17.7647 27.3334L19.7647 29.3334L21.7647 27.3334L23.7647 29.3334L25.7647 27.3334L27.7647 29.3334V2.66675L25.7647 4.66675L23.7647 2.66675L21.7647 4.66675L19.7647 2.66675L17.7647 4.66675L15.7646 2.66675L13.7646 4.66675L11.7646 2.66675L9.76465 4.66675L7.76465 2.66675L5.76465 4.66675L3.76465 2.66675M23.7647 12.0001H7.76465V9.33342H23.7647M23.7647 17.3334H7.76465V14.6667H23.7647M23.7647 22.6667H7.76465V20.0001H23.7647V22.6667Z"/>
</mask>
<path d="M3.76465 29.3334L5.76465 27.3334L7.76465 29.3334L9.76465 27.3334L11.7646 29.3334L13.7646 27.3334L15.7646 29.3334L17.7647 27.3334L19.7647 29.3334L21.7647 27.3334L23.7647 29.3334L25.7647 27.3334L27.7647 29.3334V2.66675L25.7647 4.66675L23.7647 2.66675L21.7647 4.66675L19.7647 2.66675L17.7647 4.66675L15.7646 2.66675L13.7646 4.66675L11.7646 2.66675L9.76465 4.66675L7.76465 2.66675L5.76465 4.66675L3.76465 2.66675M23.7647 12.0001H7.76465V9.33342H23.7647M23.7647 17.3334H7.76465V14.6667H23.7647M23.7647 22.6667H7.76465V20.0001H23.7647V22.6667Z" fill="#F7F7F7"/>
<path d="M5.76465 27.3334L6.43016 26.6679L5.76465 26.0024L5.09914 26.6679L5.76465 27.3334ZM7.76465 29.3334L7.09914 29.9989L7.76465 30.6644L8.43016 29.9989L7.76465 29.3334ZM9.76465 27.3334L10.4302 26.6679L9.76465 26.0024L9.09914 26.6679L9.76465 27.3334ZM11.7646 29.3334L11.0991 29.9989L11.7646 30.6644L12.4302 29.9989L11.7646 29.3334ZM13.7646 27.3334L14.4302 26.6679L13.7646 26.0024L13.0991 26.6679L13.7646 27.3334ZM15.7646 29.3334L15.0991 29.9989L15.7646 30.6644L16.4302 29.9989L15.7646 29.3334ZM17.7647 27.3334L18.4302 26.6679L17.7647 26.0024L17.0991 26.6679L17.7647 27.3334ZM19.7647 29.3334L19.0991 29.9989L19.7647 30.6644L20.4302 29.9989L19.7647 29.3334ZM21.7647 27.3334L22.4302 26.6679L21.7647 26.0024L21.0991 26.6679L21.7647 27.3334ZM23.7647 29.3334L23.0991 29.9989L23.7647 30.6644L24.4302 29.9989L23.7647 29.3334ZM25.7647 27.3334L26.4302 26.6679L25.7647 26.0024L25.0991 26.6679L25.7647 27.3334ZM27.7647 29.3334L27.0991 29.9989L28.7058 31.6056V29.3334H27.7647ZM27.7647 2.66675H28.7058V0.394547L27.0991 2.00124L27.7647 2.66675ZM25.7647 4.66675L25.0991 5.33226L25.7647 5.99777L26.4302 5.33226L25.7647 4.66675ZM23.7647 2.66675L24.4302 2.00124L23.7647 1.33572L23.0991 2.00124L23.7647 2.66675ZM21.7647 4.66675L21.0991 5.33226L21.7647 5.99777L22.4302 5.33226L21.7647 4.66675ZM19.7647 2.66675L20.4302 2.00124L19.7647 1.33572L19.0991 2.00124L19.7647 2.66675ZM17.7647 4.66675L17.0991 5.33226L17.7647 5.99777L18.4302 5.33226L17.7647 4.66675ZM15.7646 2.66675L16.4302 2.00124L15.7646 1.33572L15.0991 2.00124L15.7646 2.66675ZM13.7646 4.66675L13.0991 5.33226L13.7646 5.99777L14.4302 5.33226L13.7646 4.66675ZM11.7646 2.66675L12.4302 2.00124L11.7646 1.33572L11.0991 2.00124L11.7646 2.66675ZM9.76465 4.66675L9.09914 5.33226L9.76465 5.99777L10.4302 5.33226L9.76465 4.66675ZM7.76465 2.66675L8.43016 2.00124L7.76465 1.33572L7.09914 2.00124L7.76465 2.66675ZM5.76465 4.66675L5.09914 5.33226L5.76465 5.99777L6.43016 5.33226L5.76465 4.66675ZM7.76465 12.0001H6.82347V12.9413H7.76465V12.0001ZM7.76465 9.33342V8.39224H6.82347V9.33342H7.76465ZM7.76465 17.3334H6.82347V18.2746H7.76465V17.3334ZM7.76465 14.6667V13.7256H6.82347V14.6667H7.76465ZM23.7647 22.6667V23.6079H24.7058V22.6667H23.7647ZM7.76465 22.6667H6.82347V23.6079H7.76465V22.6667ZM7.76465 20.0001V19.0589H6.82347V20.0001H7.76465ZM23.7647 20.0001H24.7058V19.0589H23.7647V20.0001ZM4.43016 29.9989L6.43016 27.9989L5.09914 26.6679L3.09914 28.6679L4.43016 29.9989ZM5.09914 27.9989L7.09914 29.9989L8.43016 28.6679L6.43016 26.6679L5.09914 27.9989ZM8.43016 29.9989L10.4302 27.9989L9.09914 26.6679L7.09914 28.6679L8.43016 29.9989ZM9.09914 27.9989L11.0991 29.9989L12.4302 28.6679L10.4302 26.6679L9.09914 27.9989ZM12.4302 29.9989L14.4302 27.9989L13.0991 26.6679L11.0991 28.6679L12.4302 29.9989ZM13.0991 27.9989L15.0991 29.9989L16.4302 28.6679L14.4302 26.6679L13.0991 27.9989ZM16.4302 29.9989L18.4302 27.9989L17.0991 26.6679L15.0991 28.6679L16.4302 29.9989ZM17.0991 27.9989L19.0991 29.9989L20.4302 28.6679L18.4302 26.6679L17.0991 27.9989ZM20.4302 29.9989L22.4302 27.9989L21.0991 26.6679L19.0991 28.6679L20.4302 29.9989ZM21.0991 27.9989L23.0991 29.9989L24.4302 28.6679L22.4302 26.6679L21.0991 27.9989ZM24.4302 29.9989L26.4302 27.9989L25.0991 26.6679L23.0991 28.6679L24.4302 29.9989ZM25.0991 27.9989L27.0991 29.9989L28.4302 28.6679L26.4302 26.6679L25.0991 27.9989ZM28.7058 29.3334V2.66675H26.8235V29.3334H28.7058ZM27.0991 2.00124L25.0991 4.00124L26.4302 5.33226L28.4302 3.33226L27.0991 2.00124ZM26.4302 4.00124L24.4302 2.00124L23.0991 3.33226L25.0991 5.33226L26.4302 4.00124ZM23.0991 2.00124L21.0991 4.00124L22.4302 5.33226L24.4302 3.33226L23.0991 2.00124ZM22.4302 4.00124L20.4302 2.00124L19.0991 3.33226L21.0991 5.33226L22.4302 4.00124ZM19.0991 2.00124L17.0991 4.00124L18.4302 5.33226L20.4302 3.33226L19.0991 2.00124ZM18.4302 4.00124L16.4302 2.00124L15.0991 3.33226L17.0991 5.33226L18.4302 4.00124ZM15.0991 2.00124L13.0991 4.00124L14.4302 5.33226L16.4302 3.33226L15.0991 2.00124ZM14.4302 4.00124L12.4302 2.00124L11.0991 3.33226L13.0991 5.33226L14.4302 4.00124ZM11.0991 2.00124L9.09914 4.00124L10.4302 5.33226L12.4302 3.33226L11.0991 2.00124ZM10.4302 4.00124L8.43016 2.00124L7.09914 3.33226L9.09914 5.33226L10.4302 4.00124ZM7.09914 2.00124L5.09914 4.00124L6.43016 5.33226L8.43016 3.33226L7.09914 2.00124ZM6.43016 4.00124L4.43016 2.00124L3.09914 3.33226L5.09914 5.33226L6.43016 4.00124ZM23.7647 11.0589H7.76465V12.9413H23.7647V11.0589ZM8.70582 12.0001V9.33342H6.82347V12.0001H8.70582ZM7.76465 10.2746H23.7647V8.39224H7.76465V10.2746ZM23.7647 16.3922H7.76465V18.2746H23.7647V16.3922ZM8.70582 17.3334V14.6667H6.82347V17.3334H8.70582ZM7.76465 15.6079H23.7647V13.7256H7.76465V15.6079ZM23.7647 21.7256H7.76465V23.6079H23.7647V21.7256ZM8.70582 22.6667V20.0001H6.82347V22.6667H8.70582ZM7.76465 20.9413H23.7647V19.0589H7.76465V20.9413ZM22.8235 20.0001V22.6667H24.7058V20.0001H22.8235Z" fill="black" mask="url(#path-1-inside-1_1_852)"/>
</svg>
