<svg width="24" height="24" viewBox="0 0 24 24" fill="none" xmlns="http://www.w3.org/2000/svg">
<path d="M6 1.99951C4.89 1.99951 4 2.88951 4 3.99951V11.9995C4 13.1095 4.89 13.9995 6 13.9995H18C19.11 13.9995 20 13.1095 20 11.9995V3.99951C20 2.88951 19.11 1.99951 18 1.99951H6ZM6 3.99951H18V11.9995H6V3.99951ZM4 14.9995C2.89 14.9995 2 15.8895 2 16.9995V19.9995C2 21.1095 2.89 21.9995 4 21.9995H20C21.11 21.9995 22 21.1095 22 19.9995V16.9995C22 15.8895 21.11 14.9995 20 14.9995H4ZM8 16.9995H20V19.9995H8V16.9995ZM9 17.7495V19.2495H13V17.7495H9ZM15 17.7495V19.2495H19V17.7495H15Z" fill="#0C253C"/>
</svg>
