<svg width="24" height="24" viewBox="0 0 24 24" fill="none" xmlns="http://www.w3.org/2000/svg">
<path d="M4 4C2.89543 4 2 4.89543 2 6V17C2 18.1046 2.89543 19 4 19V20H6V19H17V20H19V19C20.1046 19 21 18.1046 21 17V16H22V14H21V9H22V7H21V6C21 4.89543 20.1046 4 19 4H4ZM4 6H19V17H4V6ZM13.5 7.5C11.2909 7.5 9.5 9.29086 9.5 11.5C9.5 13.7091 11.2909 15.5 13.5 15.5C15.7091 15.5 17.5 13.7091 17.5 11.5C17.5 9.29086 15.7091 7.5 13.5 7.5ZM5 9V14H7V9H5ZM13.5 9.5C14.6046 9.5 15.5 10.3954 15.5 11.5C15.5 12.6046 14.6046 13.5 13.5 13.5C12.3954 13.5 11.5 12.6046 11.5 11.5C11.5 10.3954 12.3954 9.5 13.5 9.5Z" fill="#0C253C"/>
</svg>
